<?xml version="1.0" encoding="utf-8"?>
<!-- Generator: Adobe Illustrator 27.9.2, SVG Export Plug-In . SVG Version: 6.00 Build 0)  -->
<svg version="1.1" id="Layer_1" xmlns="http://www.w3.org/2000/svg" xmlns:xlink="http://www.w3.org/1999/xlink" x="0px" y="0px"
	 viewBox="0 0 227.6 241" style="enable-background:new 0 0 227.6 241;" xml:space="preserve">
<style type="text/css">
	.st0{fill:#231F20;}
</style>
<g>
	<g>
		<path class="st0" d="M18,121.7l-7.7,5.5l-1.6,2.4l0.9,8.9l0.9,7.4l13.9,7.6l29,10.4L91,118.2H21.2l-3,3.4
			C18.2,121.6,18.1,121.7,18,121.7z"/>
		<path class="st0" d="M48.8,166l-25.3-9.1c0,0-0.1,0-0.1-0.1l-10.8-5.7l-2,13.5l13.5,12.2L48.8,166z"/>
		<path class="st0" d="M7.9,144.5l-1.9-11.2l-1.2-2.4l-0.4-0.3l1.6,12l0.8,5l2.4,3.4l0.3-1.5L9,148.3l-1.3-0.5
			c-0.5-0.2-0.7-0.7-0.5-1.2L7.9,144.5z"/>
		<polygon class="st0" points="6.1,127.8 18.5,116.8 0,116.8 2.3,124.2 		"/>
		<path class="st0" d="M53.8,98l49.1-0.4l3.7-12.8l-32.9,0.2l-11.2,7.8c-0.1,0.1-0.3,0.1-0.4,0.2l-6.1,0.8L53.8,98z"/>
		<polygon class="st0" points="23.1,114.9 92.9,114.9 101.9,100.8 23.1,100.8 		"/>
		<polygon class="st0" points="51.2,94.1 24.7,94.1 21.9,98 48.7,98 		"/>
		<polygon class="st0" points="19.1,100.6 16.4,99.9 13.5,100.8 2,109.9 0.1,114 19.1,114 		"/>
		<path class="st0" d="M58.2,82.1c-0.3,0-0.5-0.2-0.6-0.4l-8.3-11.2L29.3,88.7l-2.7,2.8h23.8L58.2,82.1z"/>
		<polygon class="st0" points="74.7,82 90.5,81.7 106.6,81.6 96.8,67.1 53.3,67.1 51.4,68.9 59.5,79.8 		"/>
		<path class="st0" d="M34.2,77.6l2.3,0.2l15.5-13.4c0.2-0.1,0.4-0.2,0.6-0.2l41.9-0.1l-5.5-5.6c-0.2-0.2-0.3-0.4-0.3-0.7
			s0.1-0.5,0.3-0.7l4.4-4.3l0.1-14.4l-8.5-4.7L67.2,43l-6.4,5.7L59.2,51c0,0,0,0,0,0.1L58,52.4c-0.1,0.1-0.3,0.2-0.4,0.3l-1.7,0.6
			l-0.3,0.6c-0.1,0.2-0.3,0.4-0.5,0.5l-1.9,0.8l-0.6,2.1c-0.1,0.3-0.3,0.5-0.5,0.6l-3.7,1.6l-7.6,6l-3.9,4.8l0.7,2
			c0.1,0.3,0.1,0.6-0.1,0.9L34.2,77.6z"/>
		<path class="st0" d="M117,71.3l3.2,7l1.5-2.3l1.5-6.6l1.5-8.5l-1.8-8.2c0-0.1,0-0.1,0-0.2l-0.1-10.7l-5.3-9.2l-7.4-2.3l-7.2,3.4
			L117,71.3z"/>
		<path class="st0" d="M102,66.8l10.9,1.2l-12-32.4l-4.5,3.6l-0.2,14.9c0,0.3-0.1,0.5-0.3,0.7l-3.1,2.5L102,66.8z"/>
		<polygon class="st0" points="88.9,130.9 91.3,121.8 82.8,132.4 57.8,163.3 78.2,157.5 		"/>
		<polygon class="st0" points="110.8,108 110.3,89.6 101.1,113 76.2,175.3 106.8,155.6 		"/>
		<polygon class="st0" points="113.6,92.6 113.3,117.7 112.1,184.8 133.7,155.6 120.6,109.6 		"/>
		<polygon class="st0" points="124.9,82.8 143.8,98.5 218,165.2 218,120.2 142.1,87.9 		"/>
		<polygon class="st0" points="150.8,77 129.5,77.8 156.5,88.2 227.6,115.9 204.6,81 		"/>
		<polygon class="st0" points="159.4,118.2 169.5,141.1 196.1,202.8 203.7,167.2 172.8,130.7 		"/>
		<polygon class="st0" points="147.1,66.2 130.3,72.4 154.7,73.7 220.3,77.5 192.6,55.2 		"/>
		<polygon class="st0" points="138.2,59.9 128.8,68.4 146.6,62.8 195.4,48 167.5,39.5 		"/>
		<polygon class="st0" points="135.3,52 130.3,60.5 141.9,52.1 175.7,27.9 153.2,28.2 		"/>
		<polygon class="st0" points="129.2,53 137.9,41.5 163.3,8.7 141.9,15.4 131.5,43.3 		"/>
		<polygon class="st0" points="130.4,31.1 140.2,4.7 128.9,12.2 127.4,33.4 127.6,39 		"/>
		<polygon class="st0" points="124.9,32 125.3,27.5 125,8.7 115.4,1.7 122.8,25.4 		"/>
		<polygon class="st0" points="117.9,26.2 117,21.7 111.2,3.8 100,0 114,20.4 		"/>
		<polygon class="st0" points="113.4,25.3 110.8,21.6 98.3,7.4 86.6,8.3 107.5,21.5 		"/>
		<polygon class="st0" points="93.8,32.2 89,28.4 71.3,17.4 58.4,23.8 85.4,30.2 		"/>
		<polygon class="st0" points="78.6,32.3 72.8,30.3 52.4,26 42.5,36.5 70,33.3 		"/>
		<polygon class="st0" points="72.4,36.3 66.3,36.7 45.9,40.7 40.7,54.2 64.9,40.5 		"/>
		<polygon class="st0" points="53,51.2 51.2,52 33.3,62.4 29.2,70.9 49.2,54.3 		"/>
		<polygon class="st0" points="140.2,147.3 131.4,128.6 130.5,126.8 131.8,131.6 138.7,156.7 		"/>
		<polygon class="st0" points="104,24.5 102.3,23.4 89.6,16.8 82.4,20 100.2,23.7 		"/>
		<polygon class="st0" points="94,25.1 87.4,24.2 99.5,32.2 103,30.6 106,29 102,26.9 		"/>
		<polygon class="st0" points="13.6,171.5 8.8,166.9 8.4,175.5 8.3,177.8 9.5,176.7 		"/>
		<polygon class="st0" points="16.3,185.2 17.6,184.1 21.7,178.9 16.8,174.3 16.5,182.9 		"/>
		<polygon class="st0" points="36.9,184.1 36.5,182.5 33.3,176.7 27.2,179.3 34.9,183.1 		"/>
		<polygon class="st0" points="66.8,178.9 75.5,164.4 76.7,161.8 70.4,163.6 54.4,167.7 36.2,175.4 42.5,187.9 		"/>
		<polygon class="st0" points="158.4,136 154.9,160.8 145.1,227.3 170.3,201 163.2,153.7 		"/>
		<polygon class="st0" points="139.2,171.9 143.4,163.7 135.5,172.2 107.9,201.7 122.4,199.6 		"/>
		<polygon class="st0" points="167,148.1 170,164.1 180.1,218.7 187.9,203.4 172.4,160.8 		"/>
		<polygon class="st0" points="109.7,158.9 98.4,181.2 67.7,241 100,224.3 108.6,177.2 		"/>
		<polygon class="st0" points="105.1,160.8 84.6,175.3 29.5,213.7 65.9,214.1 95.4,176.5 		"/>
		<polygon class="st0" points="68.8,181.6 52.7,187.8 2.3,206.7 21.6,213 57.4,190.2 		"/>
		<polygon class="st0" points="156.2,121.1 123.1,86.5 109,74.8 120.4,97.1 150.7,157.1 		"/>
		<polygon class="st0" points="149.7,162.7 140,177.6 117.5,216.9 122.6,233.4 141.4,184.8 126.2,234.3 140.5,224.8 147.8,180.1 		
			"/>
	</g>
</g>
</svg>
